<?xml version="1.0" encoding="utf-8"?>
<!-- Generator: Adobe Illustrator 15.0.0, SVG Export Plug-In . SVG Version: 6.00 Build 0)  -->
<!DOCTYPE svg PUBLIC "-//W3C//DTD SVG 1.1//EN" "http://www.w3.org/Graphics/SVG/1.1/DTD/svg11.dtd">
<svg version="1.1" id="Layer_1" xmlns="http://www.w3.org/2000/svg" xmlns:xlink="http://www.w3.org/1999/xlink" x="0px" y="0px"
	 width="73px" height="98px" viewBox="0 0 73 98" enable-background="new 0 0 73 98" xml:space="preserve">
<rect fill="#D71920" width="73" height="98"/>
<path fill="#FFFFFF" d="M43.853,11.264c-0.148,0.16-0.996,0.864-1.253,1.151c-0.251,0.28-0.737,0.859-0.737,1.904
	c0,0.281-0.003,6.65-0.003,6.961c0,1.322-0.696,2.163-0.988,2.495c-0.225,0.256-2.373,2.159-2.578,2.356l-0.632-0.01
	c0.098-0.106,1.213-1.121,1.396-1.302c0.256-0.257,0.568-0.986,0.578-1.497c0.006-0.241,0-6.964,0-7.244
	c0-1.173,0.626-2.12,0.804-2.305c0.222-0.231,2.592-2.37,2.753-2.531L43.853,11.264z M43.596,29.848v2.889
	c0,0,0.844,0.872,1.011,1.048c0.779,0.829,0.771,2.338-1.698,4.745c-0.432,0.421-1.666,1.587-3.364,1.587h-4.421l2.629,2.297h1.761
	c1.79,0,3.428-0.766,4.507-1.846c1.08-1.081,1.478-2.532,1.478-3.889v-3.767c0-1.266-0.794-2.002-1.016-2.223
	C44.362,30.569,43.596,29.848,43.596,29.848 M47.546,28.192c0.535,0,0.662-0.713,0.117-1.461c-0.131-0.181-0.429-0.258-0.751-0.258
	c-0.408,0-0.854,0.126-1.046,0.327c0,0,0.605,0.804,0.893,1.034C47.073,28.086,47.34,28.192,47.546,28.192 M26.393,20.322
	c0.104,0.044,0.674,0.272,0.674,2.458c0,0-0.039,2.541-0.039,2.677c0,1.107,0.88,2.378,2.153,2.378c0.261,0,10.444-0.01,10.444-0.01
	c0.01-0.281,0.291-1.347,0.793-1.91c0.285-0.317,2.525-2.367,2.781-2.564l0.664-0.008c-0.101,0.092-1.184,1.064-1.427,1.319
	c-0.293,0.311-0.574,1.069-0.574,1.737v1.426h1.446c0.561,0,1.304-0.512,1.465-0.783v-1.415c0,0,0.371,0.533,0.771,0.813
	c0.151-0.191,1.468-1.786,2.57-1.796h0.017c1.822,0,1.405,2.31,0.655,3.05c-0.244,0.239-1.33,1.236-1.666,1.557
	c-0.275,0.263-0.614,0.401-0.947,0.401c-0.717,0-1.41-0.648-1.41-2.108c0,0-1.597,1.517-1.836,1.716
	c-0.241,0.201-1.065,1.074-1.065,1.074v3.756c0,1.803-0.593,2.407-1.085,2.949c-0.19,0.21-2.219,2.062-2.49,2.262l-0.663,0.016
	c0,0,1.188-1.08,1.426-1.327c0.271-0.281,0.585-0.853,0.585-1.802c0-0.241-0.03-5.903-0.03-5.903h-9.228
	c-3.211,0-3.896-3.562-3.917-4.516c-0.005-0.281,0-3.126,0-3.568c0-0.585-0.375-1.574-0.973-1.878H26.393 M33,31.361l-1.763,1.763
	c1.2,1.201,1.606,1.802,1.724,2.345c0.094-0.094,1.706-1.433,1.706-1.937C34.667,32.796,34.182,32.543,33,31.361 M36.077,24.062
	c1.494,0,1.197-0.928,0.929-1.395c-0.549-0.961-2.285-2.743-2.285-2.743s-3.039,3.129-3.141,3.235
	c-0.482,0.505-0.565,0.633-1.018,0.902H36.077z M36.704,11.223c0,0-0.01,1.07,1.02,2.098c0.354,0.355,1.114,1.314,0.657,1.771
	c-0.402,0.403-1.028,1.044-1.028,1.044c-0.031-0.231-0.617-0.786-0.617-0.786s0.005,1.702,0,1.913
	c-0.021,0.769-0.31,0.988-0.31,0.988s1.42,1.409,1.42,3.221c0,0.877,0.004,1.685,0.004,1.858c0,0.371-0.094,0.658-0.352,0.943
	c-0.129,0.141-1.445,1.464-1.645,1.646c-0.381,0.344-0.783,0.4-1.084,0.4h-4.897c-0.771,0-1.563-0.601-1.563-1.203
	c0-0.15,0.01-1.815,0.01-1.815c0.247,0.287,0.499,0.622,1.098,0.622c0.009,0,0.018,0,0.025,0c0.481-0.008,0.988-0.387,1.124-0.522
	c0.14-0.142,3.704-3.867,3.704-3.867s-1.67-1.548-2.77-2.281c-0.135-0.092-0.282-0.131-0.427-0.131c-0.43,0-0.849,0.344-0.93,0.697
	c-0.337,1.482,0,3.705,0,3.705s-1.091-1.087-1.353-1.349c-0.543-0.546-0.523-1.779,0.125-2.428c0.103-0.104,1.09-1.221,2.345-1.221
	h1.955c1.312,0,2.747,1.308,2.747,1.308s0.21-0.231,0.21-0.454c0-0.673-0.024-2.485-0.024-2.485
	c-0.986-0.987-1.121-2.006-0.648-2.479C36.383,11.533,36.704,11.223,36.704,11.223 M25.292,28.18h-0.905
	c0,0,0.974,0.534,0.974,1.913v4.4c0,2.864,2.361,5.513,5.231,5.513h2.398c1.439,0,1.944-0.349,2.813-1.121
	c0.32-0.284,0.735-0.748,0.886-0.918c0.502-0.562,1.036-1.016,1.036-2.49v-1.441c0-1.245-0.721-1.763-1.069-2.11
	c-0.224-0.225-0.836-0.81-0.836-0.81v2.95c0,0,0.604,0.643,0.869,0.853c1.246,0.983,0.256,2.69-0.9,2.69
	c-0.23,0-4.943,0.001-5.264,0.01c-0.026,0-0.054,0.001-0.079,0.001c-1.932,0-4.481-1.722-4.481-4.59v-2.392
	C25.965,28.18,25.292,28.18,25.292,28.18 M29.396,31.368l-1.764,1.764c1.202,1.201,1.608,1.802,1.725,2.345
	c0.094-0.095,1.704-1.435,1.704-1.938C31.062,32.801,30.578,32.551,29.396,31.368 M11.289,42.413H5.205c0,0,1.056,0.904,1.026,2.745
	l0.029,7.374c0,1.85,0.741,1.9,0.741,1.9H9.08h0.962h2.956c1.358,0,1.832-0.972,1.832-1.498l0.02-0.707c0,0-0.432,0.889-2.221,0.889
	c-0.288,0-2.504-0.003-2.821-0.003c-0.889,0-0.821-0.739-0.898-1.37v-4.046c0,0,0.616-0.016,1.315-0.016
	c0.236,0,0.488-0.01,0.752-0.01c0.613,0,1.288,0.056,1.949,0.43c0,0-0.68-1.641-2.705-1.641H8.909v-0.795v-0.502
	c0,0,0-1.13-0.276-1.464c0,0,1.744,0.007,1.863,0.007c1.612,0.001,2.859-0.024,4.155,0.84
	C14.651,44.547,14.404,42.413,11.289,42.413 M20.789,44.788c-1.946,0-2.44,1.854-2.44,1.854s-0.046-1.79-1.61-1.79l-1.532,0.004
	c0,0,0.888,0.365,0.888,1.912l-0.002,5.728c0,1.891,0.762,1.924,0.762,1.924h2.525c-0.065-0.033-0.969-0.716-0.969-1.94v-5.08
	c0.031-0.226,0.412-0.992,1.501-0.992c0.617,0,1.297,0.643,1.281,1.366l-0.003,4.72c0,1.919,0.753,1.923,0.753,1.923h2.535
	c0,0-0.969-0.681-0.969-1.938l-0.008-5.082c0.096-0.282,0.43-0.973,1.386-0.973c0.763,0,1.4,0.643,1.386,1.367
	c0,0-0.005,4.308-0.002,4.709c0.01,1.896,0.726,1.913,0.751,1.913h0.001c1.32,0,2.536,0.004,2.536,0.004s-0.968-0.667-0.968-1.921
	v-5.158c0-2.001-1.636-2.533-2.853-2.533c-1.613,0-2.095,1.348-2.301,1.811C23.077,45.356,21.82,44.788,20.789,44.788
	 M31.352,44.851h-1.532c0,0,0.878,0.39,0.878,1.903l-0.003,5.743v0.009c0,1.895,0.756,1.905,0.773,1.905
	c1.32,0,2.526,0.004,2.526,0.004s-0.973-0.652-0.973-1.924l-0.01-0.01l0.004-5.488C33.016,44.851,31.891,44.851,31.352,44.851
	 M35.889,44.839l-1.532,0.004c0,0,0.889,0.364,0.889,1.911l-0.003,5.734c0,1.892,0.763,1.924,0.763,1.924h2.524
	c-0.064-0.032-0.97-0.714-0.97-1.939l0.003-4.694c0.067-0.426,0.286-0.753,0.62-0.969c0.335-0.219,0.723-0.327,1.105-0.327
	c0.565,0,1.126,0.236,1.514,0.711v-1.62c0,0-0.244-0.689-1.292-0.689c-1.587,0-1.974,1.886-1.974,1.886
	C37.408,45.279,37.008,44.839,35.889,44.839 M51.966,42.661c0,0-0.559,0.966-1.7,1.903c-0.718,0.59-2.225,1.317-2.225,1.317
	l1.605,0.027l-0.003,6.655c0,1.846,0.771,1.846,0.771,1.846c1.386,0,2.522,0.006,2.522,0.006s-0.976-0.653-0.976-1.867l0.003-6.633
	c0.666,0.002,0.207,0.003,0.623,0.003c0.855,0,1.493,0.374,1.493,0.374l0.008-1.443h-2.124L51.966,42.661z M56.689,50.106
	c0.555-0.604,1.387-0.727,2.025-1.905c0.41-0.754,0.733-2.639-0.572-2.639c-0.035,0-0.071,0.002-0.109,0.005
	C56.372,45.691,56.689,50.106,56.689,50.106 M58.203,44.802c2.548,0,3.92,2.064,2.064,4.007c-1.418,1.482-2.529,1.25-3.421,2.337
	c0,0.001,0.144,1.472,1.269,1.99c0.168,0.077,0.561,0.229,1.034,0.229c0.609,0,1.353-0.251,1.921-1.233l-0.006,1.544
	c0,0-0.649,0.754-2.708,0.754c-2.481,0-4.183-1.95-4.183-4.597c0-2.602,1.388-5.018,4.003-5.031H58.203 M31.848,41.77
	c-0.651,0-1.178,0.516-1.178,1.154c0,0.637,0.526,1.152,1.178,1.152c0.65,0,1.178-0.516,1.178-1.152
	C33.025,42.285,32.498,41.77,31.848,41.77 M43.435,53.331c1.027,0,1.262-0.338,1.493-0.543l-0.005-4.024
	c-0.522,0.637-2.478,0.967-2.478,3.354C42.445,52.731,42.856,53.331,43.435,53.331 M44.276,44.841c1.515,0,2.941,1.001,2.941,2.286
	v5.374c0,1.262,0.982,1.915,0.982,1.915s-1.205-0.006-2.525-0.006c0,0-0.538-0.061-0.709-1.126c-0.286,0.555-0.973,1.15-2.113,1.15
	c-1.176,0-2.11-0.409-2.387-1.81c-0.701-3.536,3.87-3.754,4.457-4.783c0.321-0.562,0.192-0.993,0.192-0.993
	c0.007-0.32-0.088-0.961-1.373-0.961c-1.317,0-1.838,1.322-1.838,1.322v-1.668C41.904,45.542,42.82,44.841,44.276,44.841
	 M64.984,44.779c-1.515,0-2.89,1-2.865,2.285c0.025,1.129,0.5,1.86,1.423,2.549c0.365,0.272,0.802,0.536,1.305,0.816
	c0.734,0.406,1.003,0.906,1.012,1.389c0.014,0.676-0.59,1.564-1.877,1.564c-1.317,0-1.843-1.349-1.843-1.349v1.707
	c0,0,0.949,0.678,2.405,0.678c1.728,0,3.475-1.312,3.436-3.141c-0.012-0.643-0.241-1.19-0.593-1.664
	c-0.583-0.783-1.649-1.332-2.473-1.839c-0.471-0.289-0.72-0.806-0.726-0.989c-0.015-0.319,0.142-0.966,1.429-0.966
	c1.254,0,1.789,1.321,1.789,1.321l-0.005-1.601C67.401,45.541,66.44,44.779,64.984,44.779"/>
</svg>
